<svg width="25" height="27" viewBox="0 0 25 27" fill="none" xmlns="http://www.w3.org/2000/svg">
<path d="M9.44422 21.9768L10.1294 23.4884C10.333 23.9384 10.6654 24.3207 11.0862 24.589C11.507 24.8573 11.9981 25.0001 12.5 25C13.0019 25.0001 13.493 24.8573 13.9138 24.589C14.3346 24.3207 14.667 23.9384 14.8706 23.4884L15.5558 21.9768C15.7997 21.4404 16.2099 20.9932 16.7281 20.699C17.2495 20.404 17.8527 20.2783 18.4514 20.3399L20.1277 20.515C20.6267 20.5668 21.1304 20.4754 21.5775 20.252C22.0246 20.0286 22.3961 19.6828 22.6469 19.2564C22.898 18.8303 23.0176 18.3418 22.9912 17.8503C22.9649 17.3588 22.7937 16.8854 22.4984 16.4874L21.5058 15.1496C21.1524 14.6697 20.9636 14.092 20.9666 13.5C20.9665 12.9096 21.1571 12.3343 21.511 11.8568L22.5036 10.5189C22.7989 10.121 22.9701 9.64758 22.9964 9.15607C23.0228 8.66457 22.9032 8.17612 22.6521 7.75C22.4013 7.32362 22.0298 6.97776 21.5827 6.75436C21.1356 6.53096 20.632 6.43961 20.1329 6.49139L18.4566 6.66644C17.8579 6.72812 17.2547 6.60244 16.7333 6.30739C16.2141 6.01149 15.8037 5.56196 15.561 5.02322L14.8706 3.51161C14.667 3.06165 14.3346 2.67932 13.9138 2.41101C13.493 2.14269 13.0019 1.99992 12.5 2C11.9981 1.99992 11.507 2.14269 11.0862 2.41101C10.6654 2.67932 10.333 3.06165 10.1294 3.51161L9.44422 5.02322C9.20147 5.56196 8.7911 6.01149 8.27192 6.30739C7.7505 6.60244 7.1473 6.72812 6.54865 6.66644L4.86705 6.49139C4.36804 6.43961 3.86444 6.53096 3.41729 6.75436C2.97015 6.97776 2.59868 7.32362 2.34792 7.75C2.09684 8.17612 1.97722 8.66457 2.00358 9.15607C2.02994 9.64758 2.20114 10.121 2.49641 10.5189L3.48896 11.8568C3.84292 12.3343 4.03353 12.9096 4.03342 13.5C4.03353 14.0904 3.84292 14.6657 3.48896 15.1432L2.49641 16.4811C2.20114 16.879 2.02994 17.3524 2.00358 17.8439C1.97722 18.3354 2.09684 18.8239 2.34792 19.25C2.59893 19.6762 2.97044 20.0218 3.41752 20.2452C3.8646 20.4686 4.36808 20.5601 4.86705 20.5086L6.54344 20.3336C7.14209 20.2719 7.74529 20.3976 8.26671 20.6926C8.78783 20.9877 9.2001 21.4373 9.44422 21.9768Z" stroke="black" stroke-width="2.5" stroke-linecap="round" stroke-linejoin="round"/>
<path d="M12.4979 16.95C14.4402 16.95 16.0148 15.4054 16.0148 13.5C16.0148 11.5946 14.4402 10.05 12.4979 10.05C10.5556 10.05 8.98102 11.5946 8.98102 13.5C8.98102 15.4054 10.5556 16.95 12.4979 16.95Z" stroke="black" stroke-width="2.5" stroke-linecap="round" stroke-linejoin="round"/>
</svg>
