<svg width="35" height="27" viewBox="0 0 35 27" fill="none" xmlns="http://www.w3.org/2000/svg">
<mask id="path-1-inside-1_302_34730" fill="white">
<path fill-rule="evenodd" clip-rule="evenodd" d="M16.6684 0.109927C15.9233 0.284997 15.3757 0.622221 14.7632 1.28301C14.3056 1.77678 14.1546 2.00263 13.8952 2.58187C13.3818 3.72824 13.2563 4.67584 13.4721 5.77675C13.6935 6.9068 14.2729 7.75507 15.4277 8.64031C16.3242 9.32745 16.376 9.41476 16.3727 10.2322L16.3701 10.8851L9.19285 15.4243C5.24536 17.9208 1.79698 20.1158 1.52985 20.3021C0.7244 20.8638 0.28843 21.5578 0.0815041 22.608C-0.336238 24.7284 0.888725 26.6039 2.91074 26.9398C3.21897 26.991 8.09582 27.0094 17.7408 26.9956C31.5501 26.9759 32.1262 26.9697 32.487 26.8376C33.1223 26.605 33.6232 26.2933 33.9782 25.9095C34.3772 25.4781 34.7864 24.6414 34.8494 24.1283C34.8741 23.9267 34.9227 23.7866 34.9593 23.8111C35.0408 23.8656 34.9918 22.9893 34.8845 22.4728C34.8423 22.2699 34.7172 21.9036 34.6064 21.6589C34.1863 20.7312 34.3101 20.8198 26.2827 15.6992C22.2243 13.1103 18.8604 10.9742 18.8075 10.9523C18.7324 10.9212 18.7053 10.6731 18.6842 9.82852C18.6593 8.8263 18.6426 8.70991 18.4621 8.28175C18.2264 7.72289 17.6327 7.08992 17.0063 6.72996C16.424 6.39517 16.1936 6.16888 15.9874 5.72892C15.4868 4.66079 15.8597 3.34378 16.8038 2.84543C18.0279 2.1994 19.4067 2.88927 19.6515 4.2702C19.7977 5.09507 19.8805 5.33317 20.1065 5.57739C20.5088 6.01234 21.1107 5.9868 21.6093 5.51355C21.9345 5.20482 22.0417 4.90723 22.0417 4.31323C22.0417 3.34606 21.5342 2.17571 20.7446 1.32206C19.7496 0.246322 18.1334 -0.234308 16.6684 0.109927ZM10.0946 17.8955C4.47964 21.446 2.78887 22.5479 2.67022 22.7337C2.35584 23.2262 2.54529 23.9438 3.06414 24.2256C3.28806 24.3472 4.11228 24.3546 17.3994 24.3531C31.1616 24.3517 31.504 24.3483 31.7863 24.2097C32.3201 23.9478 32.4848 23.2724 32.1558 22.6942C32.059 22.5242 30.3425 21.4071 24.7552 17.8783C20.7542 15.3513 17.4546 13.287 17.4229 13.291C17.3912 13.2949 14.0934 15.3669 10.0946 17.8955ZM0.0130296 23.4323C0.013371 23.7165 0.0256595 23.8236 0.040474 23.6706C0.0552203 23.5174 0.0550155 23.2849 0.0399279 23.1539C0.0248403 23.0228 0.0127565 23.1482 0.0130296 23.4323Z"/>
</mask>
<path d="M16.6684 0.109927L18.0408 5.95086L18.0409 5.95085L16.6684 0.109927ZM14.7632 1.28301L10.3628 -2.79584L10.3625 -2.79544L14.7632 1.28301ZM13.8952 2.58187L8.41931 0.129366L8.41924 0.129526L13.8952 2.58187ZM13.4721 5.77675L19.3601 4.62283L19.36 4.62258L13.4721 5.77675ZM15.4277 8.64031L11.7775 13.4022L11.7777 13.4024L15.4277 8.64031ZM16.3727 10.2322L10.3727 10.2077L10.3727 10.2084L16.3727 10.2322ZM16.3701 10.8851L19.5772 15.9561L22.357 14.1981L22.3701 10.909L16.3701 10.8851ZM9.19285 15.4243L5.9858 10.3533L5.9858 10.3533L9.19285 15.4243ZM1.52985 20.3021L4.96183 25.2236L4.96185 25.2236L1.52985 20.3021ZM0.0815041 22.608L-5.80531 21.4481L-5.80533 21.4482L0.0815041 22.608ZM2.91074 26.9398L1.92749 32.8587L1.92854 32.8589L2.91074 26.9398ZM17.7408 26.9956L17.7322 20.9956H17.7322L17.7408 26.9956ZM32.487 26.8376L34.549 32.4722L34.5501 32.4718L32.487 26.8376ZM34.8494 24.1283L40.8047 24.8597L40.8048 24.8582L34.8494 24.1283ZM34.9593 23.8111L31.6208 28.7965L31.6257 28.7998L34.9593 23.8111ZM34.8845 22.4728L40.759 21.252L40.7589 21.2517L34.8845 22.4728ZM34.6064 21.6589L29.1406 24.1338L29.1407 24.1341L34.6064 21.6589ZM26.2827 15.6992L23.056 20.7577L23.056 20.7577L26.2827 15.6992ZM18.8075 10.9523L16.507 16.4938L16.5109 16.4954L18.8075 10.9523ZM18.6842 9.82852L12.6861 9.97766L12.6861 9.97786L18.6842 9.82852ZM18.4621 8.28175L23.9908 5.95089L23.9906 5.95043L18.4621 8.28175ZM17.0063 6.72996L14.0159 11.9316L14.0168 11.9321L17.0063 6.72996ZM15.9874 5.72892L10.5545 8.27525L10.5547 8.27563L15.9874 5.72892ZM16.8038 2.84543L14.0033 -2.46089L14.0031 -2.4608L16.8038 2.84543ZM19.6515 4.2702L13.7436 5.31728L13.7436 5.31756L19.6515 4.2702ZM20.1065 5.57739L24.5112 1.5032L24.5105 1.50253L20.1065 5.57739ZM21.6093 5.51355L25.7397 9.86555L25.7406 9.86472L21.6093 5.51355ZM10.0946 17.8955L6.88787 12.8243L6.88787 12.8243L10.0946 17.8955ZM2.67022 22.7337L-2.38697 19.505L-2.38726 19.5054L2.67022 22.7337ZM3.06414 24.2256L5.92805 18.9532L5.92774 18.953L3.06414 24.2256ZM17.3994 24.3531L17.3988 18.3531H17.3987L17.3994 24.3531ZM31.7863 24.2097L29.1431 18.8233L29.143 18.8234L31.7863 24.2097ZM32.1558 22.6942L37.3709 19.7272L37.3701 19.7259L32.1558 22.6942ZM24.7552 17.8783L21.5512 22.9513L21.5513 22.9513L24.7552 17.8783ZM17.4229 13.291L16.6891 7.33599L16.6875 7.33618L17.4229 13.291ZM0.0130296 23.4323L-5.98697 23.4381L-5.98697 23.4395L0.0130296 23.4323ZM0.040474 23.6706L6.01257 24.2485L6.01285 24.2456L0.040474 23.6706ZM0.0399279 23.1539L-5.92072 23.84L-5.92067 23.8404L0.0399279 23.1539ZM15.296 -5.73101C13.1947 -5.23726 11.6398 -4.17344 10.3628 -2.79584L19.1635 5.36186C19.2113 5.31032 19.0893 5.45271 18.8119 5.62352C18.5077 5.81082 18.2188 5.90904 18.0408 5.95086L15.296 -5.73101ZM10.3625 -2.79544C10.0658 -2.47535 9.65902 -2.02107 9.26627 -1.43337C8.86446 -0.8321 8.60194 -0.27839 8.41931 0.129366L19.3711 5.03437C19.4479 4.86289 19.3905 5.01406 19.2435 5.23415C19.1054 5.44068 19.0029 5.53515 19.1639 5.36147L10.3625 -2.79544ZM8.41924 0.129526C7.46273 2.26537 7.10183 4.47054 7.58411 6.93091L19.36 4.62258C19.3588 4.61655 19.367 4.65691 19.3701 4.73239C19.3732 4.81029 19.3697 4.89739 19.3582 4.98419C19.3341 5.16603 19.2937 5.20711 19.3711 5.03421L8.41924 0.129526ZM7.58406 6.93067C8.15499 9.84389 9.77812 11.8696 11.7775 13.4022L19.0779 3.87838C18.8396 3.69573 18.911 3.70615 19.0546 3.91649C19.1285 4.02472 19.2006 4.15518 19.2596 4.299C19.3178 4.44077 19.3469 4.55559 19.3601 4.62283L7.58406 6.93067ZM11.7777 13.4024C12.0222 13.5898 12.0129 13.589 11.9441 13.5272C11.8596 13.4513 11.4547 13.0843 11.0782 12.4501C10.6496 11.728 10.4748 11.0351 10.4084 10.552C10.3618 10.2128 10.3737 9.97567 10.3727 10.2077L22.3726 10.2568C22.3734 10.0821 22.4945 8.17347 21.3971 6.32474C20.5515 4.90021 19.1943 3.96757 19.0777 3.87819L11.7777 13.4024ZM10.3727 10.2084L10.3702 10.8613L22.3701 10.909L22.3727 10.2561L10.3727 10.2084ZM13.1631 5.81416L5.9858 10.3533L12.3999 20.4952L19.5772 15.9561L13.1631 5.81416ZM5.9858 10.3533C2.15219 12.7778 -1.48854 15.0921 -1.90216 15.3806L4.96185 25.2236C4.95912 25.2255 5.71632 24.7375 7.2031 23.7911C8.58599 22.9108 10.4299 21.7412 12.3999 20.4952L5.9858 10.3533ZM-1.90214 15.3806C-4.10236 16.9149 -5.32763 19.0237 -5.80531 21.4481L5.96832 23.7679C5.9646 23.7868 5.9029 24.0798 5.66213 24.4632C5.40962 24.8652 5.11991 25.1134 4.96183 25.2236L-1.90214 15.3806ZM-5.80533 21.4482C-6.81589 26.5775 -3.73753 31.9177 1.92749 32.8587L3.89398 21.021C4.53688 21.1278 5.19174 21.5299 5.60469 22.1621C6.00559 22.776 6.04342 23.3867 5.96834 23.7679L-5.80533 21.4482ZM1.92854 32.8589C2.3262 32.9249 2.68694 32.9397 2.70178 32.9405C2.82493 32.9471 2.95125 32.9515 3.06359 32.9549C3.29337 32.9617 3.5844 32.967 3.9215 32.9715C4.60194 32.9806 5.56467 32.9874 6.80192 32.992C9.28132 33.0013 12.9244 33.0025 17.7493 32.9956L17.7322 20.9956C12.9122 21.0025 9.29436 21.0013 6.84705 20.9921C5.62094 20.9875 4.70386 20.9809 4.08179 20.9726C3.76764 20.9684 3.55174 20.9641 3.41815 20.9601C3.04438 20.9491 3.43179 20.9443 3.89293 21.0208L1.92854 32.8589ZM17.7493 32.9956C24.6359 32.9857 28.2703 32.9793 30.2213 32.9584C31.1674 32.9482 31.846 32.934 32.3362 32.9042C32.8602 32.8724 33.6455 32.8028 34.549 32.4722L30.425 21.2031C31.1481 20.9384 31.7261 20.9191 31.6091 20.9263C31.4582 20.9354 31.062 20.9487 30.0928 20.9591C28.2132 20.9792 24.6549 20.9857 17.7322 20.9956L17.7493 32.9956ZM34.5501 32.4718C35.824 32.0053 37.2201 31.2407 38.3828 29.9837L29.5735 21.8353C30.0262 21.3459 30.4206 21.2047 30.4239 21.2035L34.5501 32.4718ZM38.3828 29.9837C39.105 29.203 39.6097 28.3399 39.9296 27.6858C40.2276 27.0765 40.6578 26.0556 40.8047 24.8597L28.8942 23.397C28.9441 22.9899 29.0319 22.7201 29.0618 22.6321C29.1003 22.5187 29.1326 22.4488 29.15 22.4132C29.1682 22.376 29.1952 22.3252 29.2405 22.2554C29.2781 22.1975 29.3831 22.0411 29.5735 21.8353L38.3828 29.9837ZM40.8048 24.8582C40.7889 24.9886 40.7391 25.3588 40.5695 25.8485C40.5214 25.9874 40.2709 26.7358 39.6488 27.5279C39.355 27.902 38.5465 28.8518 37.1021 29.4083C35.2633 30.1167 33.2201 29.8675 31.6208 28.7965L38.2977 18.8256C36.6893 17.7486 34.6366 17.4984 32.788 18.2106C31.3338 18.7708 30.5153 19.7291 30.2115 20.116C29.5692 20.9338 29.2982 21.7253 29.2303 21.9213C29.0211 22.5253 28.9347 23.0664 28.894 23.3984L40.8048 24.8582ZM31.6257 28.7998C32.3555 29.2875 33.5768 29.8631 35.1661 29.8102C36.8126 29.7554 38.0872 29.0526 38.9058 28.3421C40.2335 27.1898 40.64 25.8036 40.7042 25.6009C40.9464 24.8354 40.9787 24.1781 40.9852 24.0745C41.0126 23.6389 40.9957 23.242 40.9834 23.0214C40.9567 22.5443 40.8904 21.8846 40.759 21.252L29.01 23.6936C28.9915 23.6044 28.9902 23.5767 28.9954 23.6199C28.997 23.6336 28.9987 23.6495 29.0001 23.6653C29.0007 23.6728 29.0012 23.6791 29.0016 23.6839C29.0019 23.6888 29.0021 23.6911 29.002 23.6907C29.002 23.6904 29.0017 23.6856 29.0014 23.6765C29.0011 23.6676 29.0006 23.6513 29.0003 23.6282C28.9998 23.5969 28.9986 23.484 29.0089 23.3207C29.0102 23.2996 29.0338 22.7059 29.2635 21.98C29.3214 21.797 29.7208 20.4245 31.0403 19.2793C31.8548 18.5724 33.125 17.8715 34.767 17.8168C36.3517 17.7641 37.5681 18.3381 38.2928 18.8224L31.6257 28.7998ZM40.7589 21.2517C40.6053 20.5126 40.3148 19.7197 40.072 19.1837L29.1407 24.1341C29.1144 24.0759 29.101 24.0417 29.0987 24.0357C29.0953 24.0268 29.0941 24.0234 29.0934 24.0215C29.0932 24.0207 29.0875 24.0042 29.0774 23.9697C29.0722 23.9515 29.0637 23.9214 29.0532 23.8807C29.0432 23.8418 29.0275 23.7778 29.0101 23.6939L40.7589 21.2517ZM40.0721 19.1839C40.0122 19.0515 39.628 18.1046 38.8173 17.1567C38.1478 16.3739 37.3743 15.7911 36.7902 15.3729C35.5953 14.5173 33.418 13.1339 29.5095 10.6407L23.056 20.7577C27.1748 23.385 28.9493 24.5176 29.8043 25.1298C30.2453 25.4455 30.0213 25.3346 29.6976 24.9561C29.2327 24.4125 28.9905 23.8024 29.1406 24.1338L40.0721 19.1839ZM29.5095 10.6407C27.4779 9.34479 25.6187 8.16125 24.2594 7.29809C23.5804 6.86691 23.0228 6.51357 22.6298 6.26547C22.4344 6.14216 22.2732 6.04072 22.1559 5.96744C22.0991 5.932 22.0409 5.89577 21.9899 5.86456C21.9671 5.85056 21.9264 5.82576 21.8804 5.79846C21.8598 5.78629 21.8127 5.75847 21.7534 5.72514C21.7248 5.70902 21.6691 5.67797 21.5983 5.64081C21.5682 5.62503 21.3684 5.51875 21.104 5.40922L16.5109 16.4954C16.2474 16.3862 16.0488 16.2805 16.0203 16.2656C15.9512 16.2293 15.8975 16.1994 15.8713 16.1846C15.8169 16.154 15.7762 16.13 15.7637 16.1226C15.7337 16.1048 15.7155 16.0935 15.7212 16.097C15.7273 16.1008 15.7507 16.1152 15.7989 16.1453C15.8916 16.2032 16.0335 16.2924 16.2244 16.4129C16.6038 16.6524 17.1508 16.999 17.8266 17.4282C19.1772 18.2858 21.0291 19.4648 23.056 20.7577L29.5095 10.6407ZM21.1079 5.41083C22.4056 5.94952 23.2302 6.82016 23.7019 7.49615C24.1454 8.13169 24.3609 8.70904 24.4593 9.00813C24.6467 9.5781 24.6877 10.0219 24.6899 10.0416C24.7029 10.1601 24.6937 10.1336 24.6824 9.67919L12.6861 9.97786C12.6958 10.368 12.7107 10.8878 12.7613 11.3493C12.7823 11.5405 12.8455 12.1049 13.0598 12.7566C13.1826 13.1302 13.9246 15.4218 16.507 16.4938L21.1079 5.41083ZM24.6824 9.67939C24.6728 9.29372 24.6615 8.61996 24.5706 7.98685C24.4336 7.03288 24.1584 6.34827 23.9908 5.95089L12.9333 10.6126C12.9635 10.6841 12.9076 10.5591 12.8468 10.3661C12.8131 10.2593 12.7807 10.1415 12.7523 10.0158C12.7242 9.89145 12.7052 9.78193 12.6925 9.69287C12.6695 9.53269 12.668 9.44582 12.6718 9.52257C12.6756 9.59787 12.6798 9.72494 12.6861 9.97766L24.6824 9.67939ZM23.9906 5.95043C23.1532 3.96455 21.5356 2.41264 19.9958 1.52777L14.0168 11.9321C13.7591 11.7841 13.6064 11.6446 13.5048 11.5363C13.4449 11.4724 13.3661 11.3801 13.2774 11.2509C13.1929 11.1279 13.0614 10.9163 12.9335 10.6131L23.9906 5.95043ZM19.9967 1.5283C19.8657 1.45299 20.1772 1.61201 20.5607 1.98883C20.77 2.19443 20.9598 2.42299 21.1226 2.6638C21.2782 2.89394 21.3737 3.08333 21.4201 3.18221L10.5547 8.27563C10.8805 8.97078 11.3664 9.77817 12.1509 10.5489C12.8468 11.2326 13.5645 11.6721 14.0159 11.9316L19.9967 1.5283ZM21.4203 3.18259C21.8107 4.0156 21.8532 4.90882 21.6269 5.70808C21.4028 6.49943 20.8083 7.51627 19.6045 8.15167L14.0031 -2.4608C9.77329 -0.228245 8.92284 4.7939 10.5545 8.27525L21.4203 3.18259ZM19.6043 8.15175C18.5382 8.71445 17.1465 8.78214 15.9102 8.16356C14.6827 7.54942 13.9406 6.42919 13.7436 5.31728L25.5594 3.22312C24.6265 -2.04062 18.9315 -5.06186 14.0033 -2.46089L19.6043 8.15175ZM13.7436 5.31756C13.8682 6.02039 14.1364 7.9597 15.7025 9.65226L24.5105 1.50253C24.6716 1.6766 24.8907 1.9418 25.1026 2.29408C25.311 2.64063 25.4395 2.95026 25.5157 3.16931C25.5843 3.36657 25.611 3.49247 25.6072 3.4758C25.6042 3.46228 25.5897 3.39411 25.5594 3.22284L13.7436 5.31756ZM15.7019 9.65159C17.0312 11.0887 18.9563 11.9707 21.0764 11.8806C23.0856 11.7953 24.6781 10.8731 25.7397 9.86555L17.4789 1.16155C18.0419 0.627268 19.0841 -0.0455676 20.5672 -0.108552C22.1611 -0.176242 23.5842 0.501009 24.5112 1.5032L15.7019 9.65159ZM25.7406 9.86472C26.4123 9.227 27.1372 8.31714 27.5923 7.0541C27.9994 5.92406 28.0417 4.90707 28.0417 4.31323H16.0417C16.0417 4.29267 16.0419 4.1499 16.0701 3.93332C16.0997 3.70597 16.1629 3.37458 16.3027 2.98663C16.6228 2.09807 17.1316 1.49137 17.4781 1.16238L25.7406 9.86472ZM28.0417 4.31323C28.0417 1.54097 26.7452 -1.02675 25.1493 -2.75214L16.34 5.39626C16.2592 5.30888 16.2182 5.23963 16.1846 5.16218C16.1644 5.11555 16.133 5.03329 16.1044 4.90988C16.0766 4.78979 16.0417 4.58798 16.0417 4.31323H28.0417ZM25.1493 -2.75214C22.6388 -5.46623 18.7941 -6.55297 15.296 -5.73099L18.0409 5.95085C17.7004 6.03085 17.4075 6.00446 17.1725 5.9346C16.9391 5.86519 16.6334 5.71344 16.34 5.39626L25.1493 -2.75214ZM6.88787 12.8243C4.08441 14.597 2.22439 15.7813 1.04545 16.5496C0.464229 16.9283 -0.00708359 17.242 -0.360818 17.4908C-0.530709 17.6103 -0.744676 17.7645 -0.955436 17.9331C-1.05892 18.0159 -1.22418 18.1518 -1.40827 18.3257C-1.51689 18.4283 -1.97045 18.8526 -2.38697 19.505L7.72741 25.9625C7.32573 26.5916 6.89927 26.9856 6.83121 27.0499C6.68765 27.1854 6.57637 27.2752 6.54144 27.3031C6.46779 27.362 6.44925 27.3719 6.54229 27.3065C6.71441 27.1854 7.03896 26.9669 7.59713 26.6032C8.69696 25.8865 10.4898 24.7445 13.3012 22.9668L6.88787 12.8243ZM-2.38726 19.5054C-4.60936 22.9866 -3.31899 27.5866 0.200539 29.4981L5.92774 18.953C7.29204 19.694 8.05918 20.9032 8.35591 22.027C8.6523 23.1495 8.58917 24.6125 7.7277 25.962L-2.38726 19.5054ZM0.200228 29.498C1.6289 30.274 3.10033 30.2824 3.19344 30.2876C3.67084 30.3144 4.34442 30.327 5.27967 30.3353C7.20907 30.3525 10.7728 30.3539 17.4001 30.3531L17.3987 18.3531C10.7389 18.3539 7.24695 18.3523 5.38647 18.3358C4.42679 18.3272 4.02188 18.3152 3.86654 18.3065C3.32691 18.2762 4.61134 18.238 5.92805 18.9532L0.200228 29.498ZM17.4 30.3531C24.2605 30.3524 27.8283 30.3513 29.7076 30.3326C30.606 30.3236 31.2778 30.31 31.7683 30.2761C32.3251 30.2376 33.3182 30.1415 34.4296 29.5961L29.143 18.8234C29.471 18.6624 29.9065 18.4918 30.4121 18.385C30.5992 18.3455 30.7441 18.3259 30.8211 18.3167C30.862 18.3118 30.893 18.3088 30.9116 18.3071C30.9304 18.3054 30.9407 18.3047 30.9408 18.3047C30.9409 18.3047 30.9337 18.3051 30.9177 18.306C30.9017 18.3069 30.8791 18.3079 30.8487 18.3092C30.7869 18.3118 30.7018 18.3146 30.5867 18.3175C30.3546 18.3234 30.0338 18.3287 29.588 18.3332C27.785 18.3511 24.3005 18.3524 17.3988 18.3531L17.4 30.3531ZM34.4295 29.5962C38.6733 27.5137 39.0567 22.6903 37.3709 19.7272L26.9408 25.6613C25.9128 23.8544 25.9669 20.3819 29.1431 18.8233L34.4295 29.5962ZM37.3701 19.7259C36.905 18.9088 36.3456 18.3916 36.2617 18.3114C36.0663 18.1249 35.8913 17.9812 35.7883 17.8987C35.5753 17.7283 35.3591 17.573 35.1913 17.4552C34.8391 17.208 34.3679 16.8949 33.787 16.5169C32.6082 15.7498 30.7491 14.5675 27.9591 12.8054L21.5513 22.9513C24.3486 24.718 26.1414 25.8586 27.2419 26.5748C27.8007 26.9384 28.1259 27.1569 28.2974 27.2773C28.3915 27.3433 28.3689 27.3308 28.2901 27.2677C28.2543 27.239 28.1315 27.1402 27.9746 26.9904C27.9292 26.947 27.3946 26.4585 26.9415 25.6626L37.3701 19.7259ZM27.9592 12.8054C25.9538 11.5388 24.1211 10.3863 22.7829 9.54903C22.1152 9.1313 21.5635 8.78759 21.1726 8.54615C20.9799 8.42711 20.8117 8.32386 20.6835 8.24648C20.6243 8.2108 20.5451 8.16327 20.4662 8.11776C20.4352 8.09983 20.3503 8.05092 20.2459 7.99555C20.2053 7.97405 20.0736 7.90435 19.9016 7.82646C19.8264 7.79239 19.629 7.70421 19.3683 7.61492C19.2406 7.57119 18.9944 7.4912 18.6764 7.42328C18.4722 7.37969 17.6906 7.21259 16.6891 7.33599L18.1567 19.2459C17.1555 19.3693 16.3742 19.2022 16.1705 19.1587C15.8529 19.0909 15.6072 19.0111 15.4802 18.9676C15.2207 18.8787 15.0251 18.7912 14.9519 18.7581C14.7841 18.6821 14.6581 18.6153 14.6249 18.5976C14.535 18.55 14.4709 18.5128 14.4668 18.5104C14.4417 18.4959 14.4405 18.4948 14.4825 18.5201C14.5564 18.5647 14.6824 18.6419 14.866 18.7553C15.2278 18.9788 15.7569 19.3084 16.4182 19.7221C17.738 20.5478 19.5556 21.6909 21.5512 22.9513L27.9592 12.8054ZM16.6875 7.33618C16.0361 7.41664 15.5491 7.58978 15.4367 7.6292C15.2441 7.69675 15.0945 7.76039 15.016 7.79475C14.8557 7.8649 14.7332 7.92706 14.6848 7.95184C14.5755 8.00781 14.4907 8.05558 14.4627 8.07136C14.3925 8.11095 14.3336 8.14595 14.3084 8.16099C14.2473 8.19738 14.1817 8.23739 14.1254 8.27192C14.0063 8.34496 13.8452 8.44487 13.6541 8.56394C13.2683 8.80431 12.7206 9.14746 12.0543 9.5661C10.7199 10.4046 8.89063 11.5579 6.88787 12.8243L13.3012 22.9668C15.2974 21.7045 17.1165 20.5576 18.4386 19.7269C19.1005 19.3109 19.6331 18.9773 19.9995 18.749C20.1845 18.6338 20.3175 18.5514 20.4004 18.5005C20.4452 18.4731 20.4576 18.4657 20.4502 18.4701C20.4469 18.4721 20.4382 18.4772 20.4257 18.4846C20.4147 18.491 20.3905 18.5051 20.3582 18.5233C20.3375 18.535 20.2584 18.5796 20.1532 18.6335C20.1069 18.6572 19.9861 18.7185 19.8271 18.7881C19.7492 18.8222 19.6002 18.8856 19.4081 18.953C19.2961 18.9923 18.8095 19.1653 18.1582 19.2457L16.6875 7.33618ZM-5.98697 23.4395C-5.98686 23.5309 -5.98946 23.9656 -5.93937 24.4011C-5.92963 24.4857 -5.91103 24.6335 -5.87767 24.8148C-5.85627 24.9311 -5.77772 25.3591 -5.58066 25.8757C-5.49066 26.1116 -5.25548 26.6949 -4.77903 27.3322C-4.38229 27.8629 -3.07934 29.4168 -0.672072 29.6994C1.9626 30.0088 3.70969 28.5745 4.3726 27.8788C5.03503 27.1836 5.36438 26.4985 5.48017 26.247C5.74183 25.6786 5.8514 25.1973 5.87757 25.0843C5.92222 24.8916 5.94861 24.7346 5.96231 24.6474C5.99027 24.4695 6.0054 24.3227 6.01257 24.2485L-5.93162 23.0926C-5.92815 23.0567 -5.91665 22.9401 -5.8922 22.7845C-5.88026 22.7084 -5.85559 22.5606 -5.81264 22.3752C-5.78815 22.2696 -5.68024 21.7937 -5.4202 21.2288C-5.30522 20.979 -4.97667 20.2952 -4.31504 19.6008C-3.65291 18.9059 -1.9066 17.472 0.727298 17.7813C3.13379 18.0639 4.43599 19.6172 4.83198 20.1469C5.30768 20.7832 5.54213 21.365 5.6314 21.5991C5.82701 22.1119 5.90416 22.5342 5.92421 22.6432C5.95622 22.8172 5.97353 22.9559 5.98202 23.0297C6.02218 23.3789 6.01326 23.6179 6.01303 23.4251L-5.98697 23.4395ZM6.01285 24.2456C6.06134 23.7421 6.07123 23.0814 6.00053 22.4675L-5.92067 23.8404C-5.9378 23.6917 -5.94345 23.5834 -5.94553 23.5371C-5.94801 23.4817 -5.94858 23.4396 -5.94861 23.41C-5.94864 23.3796 -5.94812 23.3448 -5.94646 23.3034C-5.94495 23.2659 -5.9414 23.1941 -5.9319 23.0955L6.01285 24.2456ZM6.00057 22.4678C5.99164 22.3903 5.96575 22.1701 5.9097 21.8995C5.88534 21.782 5.81932 21.4742 5.68541 21.0974C5.61951 20.912 5.48548 20.5609 5.25373 20.151C5.07841 19.8409 4.5361 18.9226 3.43839 18.1647C2.01982 17.1853 -0.148242 16.6491 -2.33683 17.5877C-3.99885 18.3005 -4.81249 19.5261 -5.05877 19.9195C-5.60714 20.7955 -5.78534 21.6091 -5.80628 21.6954C-5.91347 22.1375 -5.94574 22.501 -5.95151 22.5607C-5.98769 22.9355 -5.9871 23.3045 -5.98697 23.4381L6.01303 23.4265C6.01288 23.276 6.01938 23.4403 5.99294 23.7141C5.98961 23.7485 5.96002 24.0934 5.85571 24.5235C5.83621 24.6039 5.6595 25.4132 5.11267 26.2868C4.86715 26.679 4.05429 27.9038 2.39307 28.6162C0.20527 29.5545 -1.96199 29.0185 -3.37975 28.0396C-4.47665 27.2822 -5.01813 26.365 -5.19262 26.0564C-5.42354 25.6479 -5.55673 25.2988 -5.62177 25.1158C-5.75398 24.7438 -5.81826 24.4427 -5.84084 24.3336C-5.89334 24.0802 -5.91556 23.8848 -5.92072 23.84L6.00057 22.4678Z" fill="white" mask="url(#path-1-inside-1_302_34730)"/>
</svg>
