<svg width="34" height="32" viewBox="0 0 34 32" fill="none" xmlns="http://www.w3.org/2000/svg">
<path d="M32.7089 29.1375L24.9549 21.775C26.877 19.55 28.0355 16.7 28.0355 13.5937C28.0355 6.46875 21.9468 0.6875 14.4429 0.6875C6.93244 0.6875 0.850342 6.46875 0.850342 13.5937C0.850342 20.7187 6.93244 26.5 14.4429 26.5C17.7143 26.5 20.7093 25.4062 23.0526 23.5812L30.8066 30.9375C31.3332 31.4375 32.1823 31.4375 32.7089 30.9375C33.2355 30.4437 33.2355 29.6312 32.7089 29.1375ZM14.4429 23.9312C8.43321 23.9312 3.54911 19.2937 3.54911 13.5937C3.54911 7.89375 8.43321 3.25 14.4429 3.25C20.446 3.25 25.3367 7.89375 25.3367 13.5937C25.3367 19.2937 20.446 23.9312 14.4429 23.9312Z" fill="black"/>
</svg>
